# xmcd
#
# Track frame offsets: 
#        150
#        15730
#        27502
#        46001
#        58061
#        75943
#        101438
#        116247
#        142465
#        153434
#        170733
#        184563
#        200888
#        216973
#        229094
#        242561
#
# Disc length: 3538 seconds
#
# Revision: 0
# Processed by: cddbd v1.5.2PL0 Copyright (c) Steve Scherf et al.
# Submitted via: ExactAudioCopyFreeDBPlugin 1.0
#
DISCID=e10dd010
DTITLE=Stormzy - Gang Signs and Prayer
DYEAR=2017
DGENRE=Hip-Hop
TTITLE0=First Things First
TTITLE1=Cold
TTITLE2=Bad Boys (feat. Ghetts and J Hus)
TTITLE3=Blinded By Your Grace, Pt. 1
TTITLE4=Big For Your Boots
TTITLE5=Velvet - Jenny Francis (Interlude)
TTITLE6=Mr Skeng
TTITLE7=Cigarettes and Cush (feat. Kehlani)
TTITLE8=21 Gun Salute (feat. Wretch 32) [Interlude]
TTITLE9=Blinded By Your Grace, Pt. 2 (Feat. Mnek)
TTITLE10=Return Of The Rucksack
TTITLE11=100 Bags
TTITLE12=Don't Cry For Me (feat. Raleigh Ritchie)
TTITLE13=Crazy Titch (Interlude)
TTITLE14=Shut Up
TTITLE15=Lay Me Bare
EXTD=
EXTT0=
EXTT1=
EXTT2=
EXTT3=
EXTT4=
EXTT5=
EXTT6=
EXTT7=
EXTT8=
EXTT9=
EXTT10=
EXTT11=
EXTT12=
EXTT13=
EXTT14=
EXTT15=
PLAYORDER=
